<svg fill-opacity="1"
	xmlns:xlink="http://www.w3.org/1999/xlink" color-rendering="auto" color-interpolation="auto" text-rendering="auto" stroke="black" stroke-linecap="square" stroke-miterlimit="10" shape-rendering="auto" stroke-opacity="1" fill="black" stroke-dasharray="none" font-weight="normal" stroke-width="1"
	xmlns="http://www.w3.org/2000/svg" font-family="&apos;Dialog&apos;" font-style="normal" stroke-linejoin="miter" font-size="12" stroke-dashoffset="0" image-rendering="auto">
	<!--Unicode Character 'BLACK SPADE SUIT' (U+2660)-->
	<defs id="genericDefs" />
	<g>
		<g>
			<path d="M90.7031 318.5156 Q80.4375 329.2031 71.6406 333.6406 Q62.8594 338.0625 51.6094 338.0625 Q35.8594 338.0625 24.9531 327.3125 Q14.0625 316.5469 14.0625 298.5469 Q14.0625 288.8438 17.0156 280.5469 Q19.9688 272.25 30.9375 259.25 Q41.9062 246.2344 64.8281 226.2656 Q89.1562 205.0312 97.3125 186.3281 Q99.1406 182.8125 101.9531 182.8125 L106.0312 182.8125 Q108.8438 182.8125 110.5312 186.3281 Q118.8281 205.0312 143.1562 226.2656 Q166.0781 246.2344 177.0469 259.25 Q188.0156 272.25 190.8906 280.5469 Q193.7812 288.8438 193.7812 298.5469 Q193.7812 316.5469 182.875 327.3125 Q171.9844 338.0625 156.375 338.0625 Q145.125 338.0625 136.3281 333.6406 Q127.5469 329.2031 117.2812 318.5156 Q120.9375 359.5781 137.6719 385.875 L70.3125 385.875 Q86.9062 359.5781 90.7031 318.5156 Z" stroke="none" />
		</g>
	</g>
</svg>
