<svg xmlns="http://www.w3.org/2000/svg" width="500" viewBox="0 0 375 375" height="500" version="1.0"><defs><clipPath id="a"><path d="M39.922 39h295.5v297h-295.5Zm0 0"/></clipPath></defs><g clip-path="url(#a)"><path fill="#1cedca" d="M119.059 156.066c-2.559-1.91-5.121-2.863-7.676-2.863H99.89v68.824h11.496c2.558 0 5.12-.953 7.675-2.863 2.56-1.91 3.836-4.777 3.836-8.605v-45.887c-.007-3.82-1.293-6.692-3.84-8.606Zm187.09-116.14H68.843c-15.946 0-28.883 12.906-28.922 28.855V306.22c.039 15.949 12.976 28.855 28.922 28.855h237.304c15.95 0 28.883-12.906 28.922-28.855V68.78c-.039-15.949-12.98-28.855-28.922-28.855ZM141.507 210.684c0 12.39-7.649 31.168-31.86 31.129H79.082V132.805h31.211c23.352 0 31.203 18.75 31.21 31.148Zm66.332-58.41h-35.102v25.312h21.457v19.48h-21.457v25.305h35.106v19.48h-40.965c-7.352.192-13.465-5.62-13.649-12.972v-82.422c-.18-7.348 5.641-13.45 12.985-13.633h41.629Zm68.277 75.953c-8.695 20.261-24.277 16.226-31.254 0l-25.383-95.395h21.458l19.574 74.918 19.48-74.918h21.465Zm0 0"/></g></svg>